<svg xmlns="http://www.w3.org/2000/svg" width="680" viewBox="0 0 680 410" role="img"><title>How a V-brake mounts on bosses</title>
<defs><marker id="arrow" viewBox="0 0 10 10" refX="8" refY="5" markerWidth="6" markerHeight="6" orient="auto-start-reverse"><path d="M2 1L8 5L2 9" fill="none" stroke="context-stroke" stroke-width="1.5" stroke-linecap="round" stroke-linejoin="round"/></marker></defs>
<rect x="115" y="80" width="30" height="260" rx="15" fill="none" stroke="#808080" stroke-width="1.5" opacity="0.5"/>
<line x1="70" y1="70" x2="70" y2="340" stroke="#808080" stroke-width="5" stroke-linecap="round"/>
<line x1="190" y1="70" x2="190" y2="340" stroke="#808080" stroke-width="5" stroke-linecap="round"/>
<line x1="52" y1="250" x2="70" y2="250" stroke="#EF9F27" stroke-width="7" stroke-linecap="round"/>
<line x1="190" y1="250" x2="208" y2="250" stroke="#EF9F27" stroke-width="7" stroke-linecap="round"/>
<rect x="335" y="80" width="30" height="260" rx="15" fill="none" stroke="#808080" stroke-width="1.5" opacity="0.5"/>
<line x1="290" y1="70" x2="290" y2="340" stroke="#808080" stroke-width="5" stroke-linecap="round"/>
<line x1="410" y1="70" x2="410" y2="340" stroke="#808080" stroke-width="5" stroke-linecap="round"/>
<line x1="272" y1="250" x2="290" y2="250" stroke="#EF9F27" stroke-width="7" stroke-linecap="round"/>
<line x1="410" y1="250" x2="428" y2="250" stroke="#EF9F27" stroke-width="7" stroke-linecap="round"/>
<rect x="266" y="160" width="12" height="102" rx="4" fill="#808080" opacity="0.45"/>
<rect x="422" y="160" width="12" height="102" rx="4" fill="#808080" opacity="0.45"/>
<circle cx="272" cy="250" r="3" fill="#808080"/><circle cx="428" cy="250" r="3" fill="#808080"/>
<line x1="278" y1="227" x2="322" y2="227" stroke="#808080" stroke-width="2"/>
<line x1="422" y1="227" x2="378" y2="227" stroke="#808080" stroke-width="2"/>
<rect x="320" y="220" width="11" height="14" rx="2" fill="#808080"/><rect x="369" y="220" width="11" height="14" rx="2" fill="#808080"/>
<rect x="555" y="80" width="30" height="260" rx="15" fill="none" stroke="#808080" stroke-width="1.5" opacity="0.5"/>
<line x1="510" y1="70" x2="510" y2="340" stroke="#808080" stroke-width="5" stroke-linecap="round"/>
<line x1="630" y1="70" x2="630" y2="340" stroke="#808080" stroke-width="5" stroke-linecap="round"/>
<line x1="492" y1="250" x2="510" y2="250" stroke="#EF9F27" stroke-width="7" stroke-linecap="round"/>
<line x1="630" y1="250" x2="648" y2="250" stroke="#EF9F27" stroke-width="7" stroke-linecap="round"/>
<rect x="486" y="160" width="12" height="102" rx="4" fill="#808080" opacity="0.45"/>
<rect x="642" y="160" width="12" height="102" rx="4" fill="#808080" opacity="0.45"/>
<circle cx="492" cy="250" r="3" fill="#808080"/><circle cx="648" cy="250" r="3" fill="#808080"/>
<line x1="498" y1="227" x2="546" y2="227" stroke="#808080" stroke-width="2"/>
<line x1="642" y1="227" x2="594" y2="227" stroke="#808080" stroke-width="2"/>
<rect x="544" y="220" width="11" height="14" rx="2" fill="#808080"/><rect x="585" y="220" width="11" height="14" rx="2" fill="#808080"/>
<line x1="492" y1="162" x2="648" y2="162" stroke="#378ADD" stroke-width="2"/>
<line x1="474" y1="140" x2="496" y2="140" stroke="#378ADD" stroke-width="1.5" marker-end="url(#arrow)"/>
<line x1="666" y1="140" x2="644" y2="140" stroke="#378ADD" stroke-width="1.5" marker-end="url(#arrow)"/>
<text font-family="Arial, sans-serif" font-size="14" font-weight="bold" fill="#808080" x="130" y="372" text-anchor="middle">1. Bare bosses</text><text font-family="Arial, sans-serif" font-size="12" fill="#808080" x="130" y="392" text-anchor="middle">posts on the seat stays</text>
<text font-family="Arial, sans-serif" font-size="14" font-weight="bold" fill="#808080" x="350" y="372" text-anchor="middle">2. Arms slide on</text><text font-family="Arial, sans-serif" font-size="12" fill="#808080" x="350" y="392" text-anchor="middle">a bolt holds each one</text>
<text font-family="Arial, sans-serif" font-size="14" font-weight="bold" fill="#808080" x="570" y="372" text-anchor="middle">3. Cable pulls arms in</text><text font-family="Arial, sans-serif" font-size="12" fill="#808080" x="570" y="392" text-anchor="middle">pads squeeze the rim</text>
</svg>